# xmcd
#
# Track frame offsets:
#	150
#	53161
#	91935
#	152738
#	187137
#	237519
#	273969
#
# Disc length: 4349 seconds
#
# Revision: 1
# Processed by: cddbd v1.5.2PL0 Copyright (c) Steve Scherf et al.
# Submitted via: audiograbber 1.83.01
#
DISCID=5a10fb07
DTITLE=Grateful Dead - 79-09-04 Madison Square Garden, New York NY
DYEAR=1900
DGENRE=
TTITLE0=He's Gone
TTITLE1=Jam
TTITLE2=Drums
TTITLE3=Space
TTITLE4=Wharf Rat
TTITLE5=Around and Around
TTITLE6=Shakedown Street
EXTD=
EXTT0=
EXTT1=
EXTT2=
EXTT3=
EXTT4=
EXTT5=
EXTT6=
PLAYORDER=
